<?xml version="1.0" encoding="utf-8" standalone="no" ?>
<!DOCTYPE svg PUBLIC "-//W3C//DTD SVG 1.1//EN" "http://www.w3.org/Graphics/SVG/1.1/DTD/svg11.dtd"
[
	<!ENTITY tex-scale  "scale(1.7)">
	<!ENTITY grid-width  "0.25">
	<!ENTITY grid-width0 "1.0">
]>
<svg version="1.1"
	xmlns="http://www.w3.org/2000/svg"
	xmlns:xlink="http://www.w3.org/1999/xlink"
	viewBox="-350 -400 670 533"
	width="670" height="533"
>

<title>sinc and si functions</title>
<desc>
	si function (red): si(x) = sin(x) / x

	sinc function (blue): sinc(x) = sin(pi*x) / (pi*x)

	Plotted with cubic Bézier Curves.
	Symbols in "Computer Modern" (TeX) Font embedded.
	Created with a plain Text Editor.

	From Wikimedia Commons.

	About: http://commons.wikimedia.org/wiki/Image:Si_sinc.svg
	Source: http://commons.wikimedia.org/
	Rights: GNU Free Documentation License,
	Creative Commons Attribution ShareAlike License.
</desc>

<defs>

<path id="d0" d="M 4.578125 -3.1875 C 4.578125 -3.984375 4.53125 -4.78125 4.1875 -5.515625 C 3.734375 -6.484375 2.90625 -6.640625 2.5 -6.640625 C 1.890625 -6.640625 1.171875 -6.375 0.75 -5.453125 C 0.4375 -4.765625 0.390625 -3.984375 0.390625 -3.1875 C 0.390625 -2.4375 0.421875 -1.546875 0.84375 -0.78125 C 1.265625 0.015625 2 0.21875 2.484375 0.21875 C 3.015625 0.21875 3.78125 0.015625 4.21875 -0.9375 C 4.53125 -1.625 4.578125 -2.40625 4.578125 -3.1875 Z M 2.484375 0 C 2.09375 0 1.5 -0.25 1.328125 -1.203125 C 1.21875 -1.796875 1.21875 -2.71875 1.21875 -3.3125 C 1.21875 -3.953125 1.21875 -4.609375 1.296875 -5.140625 C 1.484375 -6.328125 2.234375 -6.421875 2.484375 -6.421875 C 2.8125 -6.421875 3.46875 -6.234375 3.65625 -5.25 C 3.765625 -4.6875 3.765625 -3.9375 3.765625 -3.3125 C 3.765625 -2.5625 3.765625 -1.890625 3.65625 -1.25 C 3.5 -0.296875 2.9375 0 2.484375 0 Z M 2.484375 0 "/>
<path id="d1" d="M 2.9375 -6.375 C 2.9375 -6.625 2.9375 -6.640625 2.703125 -6.640625 C 2.078125 -6 1.203125 -6 0.890625 -6 L 0.890625 -5.6875 C 1.09375 -5.6875 1.671875 -5.6875 2.1875 -5.953125 L 2.1875 -0.78125 C 2.1875 -0.421875 2.15625 -0.3125 1.265625 -0.3125 L 0.953125 -0.3125 L 0.953125 0 C 1.296875 -0.03125 2.15625 -0.03125 2.5625 -0.03125 C 2.953125 -0.03125 3.828125 -0.03125 4.171875 0 L 4.171875 -0.3125 L 3.859375 -0.3125 C 2.953125 -0.3125 2.9375 -0.421875 2.9375 -0.78125 L 2.9375 -6.375 Z M 2.9375 -6.375 "/>
<path id="d2" d="M 4.46875 -1.734375 L 4.234375 -1.734375 C 4.171875 -1.4375 4.109375 -1 4 -0.84375 C 3.9375 -0.765625 3.28125 -0.765625 3.0625 -0.765625 L 1.265625 -0.765625 L 2.328125 -1.796875 C 3.875 -3.171875 4.46875 -3.703125 4.46875 -4.703125 C 4.46875 -5.84375 3.578125 -6.640625 2.359375 -6.640625 C 1.234375 -6.640625 0.5 -5.71875 0.5 -4.828125 C 0.5 -4.28125 1 -4.28125 1.03125 -4.28125 C 1.203125 -4.28125 1.546875 -4.390625 1.546875 -4.8125 C 1.546875 -5.0625 1.359375 -5.328125 1.015625 -5.328125 C 0.9375 -5.328125 0.921875 -5.328125 0.890625 -5.3125 C 1.109375 -5.96875 1.65625 -6.328125 2.234375 -6.328125 C 3.140625 -6.328125 3.5625 -5.515625 3.5625 -4.703125 C 3.5625 -3.90625 3.078125 -3.125 2.515625 -2.5 L 0.609375 -0.375 C 0.5 -0.265625 0.5 -0.234375 0.5 0 L 4.203125 0 L 4.46875 -1.734375 Z M 4.46875 -1.734375 "/>
<path id="d4" d="M 2.9375 -1.640625 L 2.9375 -0.78125 C 2.9375 -0.421875 2.90625 -0.3125 2.171875 -0.3125 L 1.96875 -0.3125 L 1.96875 0 C 2.375 -0.03125 2.890625 -0.03125 3.3125 -0.03125 C 3.734375 -0.03125 4.25 -0.03125 4.671875 0 L 4.671875 -0.3125 L 4.453125 -0.3125 C 3.71875 -0.3125 3.703125 -0.421875 3.703125 -0.78125 L 3.703125 -1.640625 L 4.6875 -1.640625 L 4.6875 -1.953125 L 3.703125 -1.953125 L 3.703125 -6.484375 C 3.703125 -6.6875 3.703125 -6.75 3.53125 -6.75 C 3.453125 -6.75 3.421875 -6.75 3.34375 -6.625 L 0.28125 -1.953125 L 0.28125 -1.640625 Z M 2.984375 -1.953125 L 0.5625 -1.953125 L 2.984375 -5.671875 Z M 2.984375 -1.953125 "/>
<path id="d5" d="M 4.46875 -2 C 4.46875 -3.1875 3.65625 -4.1875 2.578125 -4.1875 C 2.109375 -4.1875 1.671875 -4.03125 1.3125 -3.671875 L 1.3125 -5.625 C 1.515625 -5.5625 1.84375 -5.5 2.15625 -5.5 C 3.390625 -5.5 4.09375 -6.40625 4.09375 -6.53125 C 4.09375 -6.59375 4.0625 -6.640625 3.984375 -6.640625 C 3.984375 -6.640625 3.953125 -6.640625 3.90625 -6.609375 C 3.703125 -6.515625 3.21875 -6.3125 2.546875 -6.3125 C 2.15625 -6.3125 1.6875 -6.390625 1.21875 -6.59375 C 1.140625 -6.625 1.125 -6.625 1.109375 -6.625 C 1 -6.625 1 -6.546875 1 -6.390625 L 1 -3.4375 C 1 -3.265625 1 -3.1875 1.140625 -3.1875 C 1.21875 -3.1875 1.234375 -3.203125 1.28125 -3.265625 C 1.390625 -3.421875 1.75 -3.96875 2.5625 -3.96875 C 3.078125 -3.96875 3.328125 -3.515625 3.40625 -3.328125 C 3.5625 -2.953125 3.59375 -2.578125 3.59375 -2.078125 C 3.59375 -1.71875 3.59375 -1.125 3.34375 -0.703125 C 3.109375 -0.3125 2.734375 -0.0625 2.28125 -0.0625 C 1.5625 -0.0625 0.984375 -0.59375 0.8125 -1.171875 C 0.84375 -1.171875 0.875 -1.15625 0.984375 -1.15625 C 1.3125 -1.15625 1.484375 -1.40625 1.484375 -1.640625 C 1.484375 -1.890625 1.3125 -2.140625 0.984375 -2.140625 C 0.84375 -2.140625 0.5 -2.0625 0.5 -1.609375 C 0.5 -0.75 1.1875 0.21875 2.296875 0.21875 C 3.453125 0.21875 4.46875 -0.734375 4.46875 -2 Z M 4.46875 -2 "/>
<path id="d6" d="M 1.3125 -3.265625 L 1.3125 -3.515625 C 1.3125 -6.03125 2.546875 -6.390625 3.0625 -6.390625 C 3.296875 -6.390625 3.71875 -6.328125 3.9375 -5.984375 C 3.78125 -5.984375 3.390625 -5.984375 3.390625 -5.546875 C 3.390625 -5.234375 3.625 -5.078125 3.84375 -5.078125 C 4 -5.078125 4.3125 -5.171875 4.3125 -5.5625 C 4.3125 -6.15625 3.875 -6.640625 3.046875 -6.640625 C 1.765625 -6.640625 0.421875 -5.359375 0.421875 -3.15625 C 0.421875 -0.484375 1.578125 0.21875 2.5 0.21875 C 3.609375 0.21875 4.5625 -0.71875 4.5625 -2.03125 C 4.5625 -3.296875 3.671875 -4.25 2.5625 -4.25 C 1.890625 -4.25 1.515625 -3.75 1.3125 -3.265625 Z M 2.5 -0.0625 C 1.875 -0.0625 1.578125 -0.65625 1.515625 -0.8125 C 1.328125 -1.28125 1.328125 -2.078125 1.328125 -2.25 C 1.328125 -3.03125 1.65625 -4.03125 2.546875 -4.03125 C 2.71875 -4.03125 3.171875 -4.03125 3.484375 -3.40625 C 3.65625 -3.046875 3.65625 -2.53125 3.65625 -2.046875 C 3.65625 -1.5625 3.65625 -1.0625 3.484375 -0.703125 C 3.1875 -0.109375 2.734375 -0.0625 2.5 -0.0625 Z M 2.5 -0.0625 "/>
<path id="d8" d="M 1.625 -4.5625 C 1.171875 -4.859375 1.125 -5.1875 1.125 -5.359375 C 1.125 -5.96875 1.78125 -6.390625 2.484375 -6.390625 C 3.203125 -6.390625 3.84375 -5.875 3.84375 -5.15625 C 3.84375 -4.578125 3.453125 -4.109375 2.859375 -3.765625 Z M 3.078125 -3.609375 C 3.796875 -3.984375 4.28125 -4.5 4.28125 -5.15625 C 4.28125 -6.078125 3.40625 -6.640625 2.5 -6.640625 C 1.5 -6.640625 0.6875 -5.90625 0.6875 -4.96875 C 0.6875 -4.796875 0.703125 -4.34375 1.125 -3.875 C 1.234375 -3.765625 1.609375 -3.515625 1.859375 -3.34375 C 1.28125 -3.046875 0.421875 -2.5 0.421875 -1.5 C 0.421875 -0.453125 1.4375 0.21875 2.484375 0.21875 C 3.609375 0.21875 4.5625 -0.609375 4.5625 -1.671875 C 4.5625 -2.03125 4.453125 -2.484375 4.0625 -2.90625 C 3.875 -3.109375 3.71875 -3.203125 3.078125 -3.609375 Z M 2.078125 -3.1875 L 3.3125 -2.40625 C 3.59375 -2.21875 4.0625 -1.921875 4.0625 -1.3125 C 4.0625 -0.578125 3.3125 -0.0625 2.5 -0.0625 C 1.640625 -0.0625 0.921875 -0.671875 0.921875 -1.5 C 0.921875 -2.078125 1.234375 -2.71875 2.078125 -3.1875 Z M 2.078125 -3.1875 "/>

<path id="minus" d="M 6.59375 -2.296875 C 6.734375 -2.296875 6.921875 -2.296875 6.921875 -2.5 C 6.921875 -2.6875 6.734375 -2.6875 6.59375 -2.6875 L 1.15625 -2.6875 C 1.015625 -2.6875 0.828125 -2.6875 0.828125 -2.5 C 0.828125 -2.296875 1.015625 -2.296875 1.15625 -2.296875 L 6.59375 -2.296875 Z M 6.59375 -2.296875 "/>
<path id="lparen" d="M 3.296875 2.390625 C 3.296875 2.359375 3.296875 2.34375 3.125 2.171875 C 1.890625 0.921875 1.5625 -0.96875 1.5625 -2.5 C 1.5625 -4.234375 1.9375 -5.96875 3.171875 -7.203125 C 3.296875 -7.328125 3.296875 -7.34375 3.296875 -7.375 C 3.296875 -7.453125 3.265625 -7.484375 3.203125 -7.484375 C 3.09375 -7.484375 2.203125 -6.796875 1.609375 -5.53125 C 1.109375 -4.4375 0.984375 -3.328125 0.984375 -2.5 C 0.984375 -1.71875 1.09375 -0.515625 1.640625 0.625 C 2.25 1.84375 3.09375 2.5 3.203125 2.5 C 3.265625 2.5 3.296875 2.46875 3.296875 2.390625 Z M 3.296875 2.390625 "/>
<path id="rparen" d="M 2.875 -2.5 C 2.875 -3.265625 2.765625 -4.46875 2.21875 -5.609375 C 1.625 -6.828125 0.765625 -7.484375 0.671875 -7.484375 C 0.609375 -7.484375 0.5625 -7.4375 0.5625 -7.375 C 0.5625 -7.34375 0.5625 -7.328125 0.75 -7.140625 C 1.734375 -6.15625 2.296875 -4.578125 2.296875 -2.5 C 2.296875 -0.78125 1.9375 0.96875 0.703125 2.21875 C 0.5625 2.34375 0.5625 2.359375 0.5625 2.390625 C 0.5625 2.453125 0.609375 2.5 0.671875 2.5 C 0.765625 2.5 1.671875 1.8125 2.25 0.546875 C 2.765625 -0.546875 2.875 -1.65625 2.875 -2.5 Z M 2.875 -2.5 "/>
<path id="dot" d="M 1.90625 -0.53125 C 1.90625 -0.8125 1.671875 -1.0625 1.390625 -1.0625 C 1.09375 -1.0625 0.859375 -0.8125 0.859375 -0.53125 C 0.859375 -0.234375 1.09375 0 1.390625 0 C 1.671875 0 1.90625 -0.234375 1.90625 -0.53125 Z M 1.90625 -0.53125 "/>

<path id="it-x" d="M 3.328125 -3.015625 C 3.390625 -3.265625 3.625 -4.1875 4.3125 -4.1875 C 4.359375 -4.1875 4.609375 -4.1875 4.8125 -4.0625 C 4.53125 -4 4.34375 -3.765625 4.34375 -3.515625 C 4.34375 -3.359375 4.453125 -3.171875 4.71875 -3.171875 C 4.9375 -3.171875 5.25 -3.34375 5.25 -3.75 C 5.25 -4.265625 4.671875 -4.40625 4.328125 -4.40625 C 3.75 -4.40625 3.40625 -3.875 3.28125 -3.65625 C 3.03125 -4.3125 2.5 -4.40625 2.203125 -4.40625 C 1.171875 -4.40625 0.59375 -3.125 0.59375 -2.875 C 0.59375 -2.765625 0.703125 -2.765625 0.71875 -2.765625 C 0.796875 -2.765625 0.828125 -2.796875 0.84375 -2.875 C 1.1875 -3.9375 1.84375 -4.1875 2.1875 -4.1875 C 2.375 -4.1875 2.71875 -4.09375 2.71875 -3.515625 C 2.71875 -3.203125 2.546875 -2.546875 2.1875 -1.140625 C 2.03125 -0.53125 1.671875 -0.109375 1.234375 -0.109375 C 1.171875 -0.109375 0.953125 -0.109375 0.734375 -0.234375 C 0.984375 -0.296875 1.203125 -0.5 1.203125 -0.78125 C 1.203125 -1.046875 0.984375 -1.125 0.84375 -1.125 C 0.53125 -1.125 0.296875 -0.875 0.296875 -0.546875 C 0.296875 -0.09375 0.78125 0.109375 1.21875 0.109375 C 1.890625 0.109375 2.25 -0.59375 2.265625 -0.640625 C 2.390625 -0.28125 2.75 0.109375 3.34375 0.109375 C 4.375 0.109375 4.9375 -1.171875 4.9375 -1.421875 C 4.9375 -1.53125 4.859375 -1.53125 4.828125 -1.53125 C 4.734375 -1.53125 4.71875 -1.484375 4.6875 -1.421875 C 4.359375 -0.34375 3.6875 -0.109375 3.375 -0.109375 C 2.984375 -0.109375 2.828125 -0.421875 2.828125 -0.765625 C 2.828125 -0.984375 2.875 -1.203125 2.984375 -1.640625 L 3.328125 -3.015625 Z M 3.328125 -3.015625 "/>
<path id="pi" d="M 2.640625 -3.71875 L 3.765625 -3.71875 C 3.4375 -2.25 3.34375 -1.8125 3.34375 -1.140625 C 3.34375 -1 3.34375 -0.734375 3.421875 -0.390625 C 3.53125 0.046875 3.640625 0.109375 3.78125 0.109375 C 3.984375 0.109375 4.203125 -0.0625 4.203125 -0.265625 C 4.203125 -0.328125 4.203125 -0.34375 4.140625 -0.484375 C 3.84375 -1.203125 3.84375 -1.859375 3.84375 -2.140625 C 3.84375 -2.65625 3.921875 -3.203125 4.03125 -3.71875 L 5.15625 -3.71875 C 5.296875 -3.71875 5.65625 -3.71875 5.65625 -4.0625 C 5.65625 -4.296875 5.4375 -4.296875 5.25 -4.296875 L 1.90625 -4.296875 C 1.6875 -4.296875 1.3125 -4.296875 0.875 -3.828125 C 0.53125 -3.4375 0.265625 -2.984375 0.265625 -2.9375 C 0.265625 -2.921875 0.265625 -2.828125 0.390625 -2.828125 C 0.46875 -2.828125 0.484375 -2.875 0.546875 -2.953125 C 1.03125 -3.71875 1.609375 -3.71875 1.8125 -3.71875 L 2.375 -3.71875 C 2.0625 -2.515625 1.53125 -1.3125 1.109375 -0.40625 C 1.03125 -0.25 1.03125 -0.234375 1.03125 -0.15625 C 1.03125 0.03125 1.1875 0.109375 1.3125 0.109375 C 1.609375 0.109375 1.6875 -0.171875 1.8125 -0.53125 C 1.953125 -1 1.953125 -1.015625 2.078125 -1.515625 Z M 2.640625 -3.71875 "/>
<path id="s" d="M 2.078125 -1.9375 C 2.296875 -1.890625 3.109375 -1.734375 3.109375 -1.015625 C 3.109375 -0.515625 2.765625 -0.109375 1.984375 -0.109375 C 1.140625 -0.109375 0.78125 -0.671875 0.59375 -1.53125 C 0.5625 -1.65625 0.5625 -1.6875 0.453125 -1.6875 C 0.328125 -1.6875 0.328125 -1.625 0.328125 -1.453125 L 0.328125 -0.125 C 0.328125 0.046875 0.328125 0.109375 0.4375 0.109375 C 0.484375 0.109375 0.5 0.09375 0.6875 -0.09375 C 0.703125 -0.109375 0.703125 -0.125 0.890625 -0.3125 C 1.328125 0.09375 1.78125 0.109375 1.984375 0.109375 C 3.125 0.109375 3.59375 -0.5625 3.59375 -1.28125 C 3.59375 -1.796875 3.296875 -2.109375 3.171875 -2.21875 C 2.84375 -2.546875 2.453125 -2.625 2.03125 -2.703125 C 1.46875 -2.8125 0.8125 -2.9375 0.8125 -3.515625 C 0.8125 -3.875 1.0625 -4.28125 1.921875 -4.28125 C 3.015625 -4.28125 3.078125 -3.375 3.09375 -3.078125 C 3.09375 -2.984375 3.1875 -2.984375 3.203125 -2.984375 C 3.34375 -2.984375 3.34375 -3.03125 3.34375 -3.21875 L 3.34375 -4.234375 C 3.34375 -4.390625 3.34375 -4.46875 3.234375 -4.46875 C 3.1875 -4.46875 3.15625 -4.46875 3.03125 -4.34375 C 3 -4.3125 2.90625 -4.21875 2.859375 -4.1875 C 2.484375 -4.46875 2.078125 -4.46875 1.921875 -4.46875 C 0.703125 -4.46875 0.328125 -3.796875 0.328125 -3.234375 C 0.328125 -2.890625 0.484375 -2.609375 0.75 -2.390625 C 1.078125 -2.140625 1.359375 -2.078125 2.078125 -1.9375 Z M 2.078125 -1.9375 "/>
<path id="i" d="M 1.765625 -4.40625 L 0.375 -4.296875 L 0.375 -3.984375 C 1.015625 -3.984375 1.109375 -3.921875 1.109375 -3.4375 L 1.109375 -0.75 C 1.109375 -0.3125 1 -0.3125 0.328125 -0.3125 L 0.328125 0 C 0.640625 -0.015625 1.1875 -0.03125 1.421875 -0.03125 C 1.78125 -0.03125 2.125 -0.015625 2.46875 0 L 2.46875 -0.3125 C 1.796875 -0.3125 1.765625 -0.359375 1.765625 -0.75 Z M 1.796875 -6.140625 C 1.796875 -6.453125 1.5625 -6.671875 1.28125 -6.671875 C 0.96875 -6.671875 0.75 -6.40625 0.75 -6.140625 C 0.75 -5.875 0.96875 -5.609375 1.28125 -5.609375 C 1.5625 -5.609375 1.796875 -5.828125 1.796875 -6.140625 Z M 1.796875 -6.140625 "/>
<path id="n" d="M 1.09375 -3.421875 L 1.09375 -0.75 C 1.09375 -0.3125 0.984375 -0.3125 0.3125 -0.3125 L 0.3125 0 C 0.671875 -0.015625 1.171875 -0.03125 1.453125 -0.03125 C 1.703125 -0.03125 2.21875 -0.015625 2.5625 0 L 2.5625 -0.3125 C 1.890625 -0.3125 1.78125 -0.3125 1.78125 -0.75 L 1.78125 -2.59375 C 1.78125 -3.625 2.5 -4.1875 3.125 -4.1875 C 3.765625 -4.1875 3.875 -3.65625 3.875 -3.078125 L 3.875 -0.75 C 3.875 -0.3125 3.765625 -0.3125 3.09375 -0.3125 L 3.09375 0 C 3.4375 -0.015625 3.953125 -0.03125 4.21875 -0.03125 C 4.46875 -0.03125 5 -0.015625 5.328125 0 L 5.328125 -0.3125 C 4.8125 -0.3125 4.5625 -0.3125 4.5625 -0.609375 L 4.5625 -2.515625 C 4.5625 -3.375 4.5625 -3.671875 4.25 -4.03125 C 4.109375 -4.203125 3.78125 -4.40625 3.203125 -4.40625 C 2.46875 -4.40625 2 -3.984375 1.71875 -3.359375 L 1.71875 -4.40625 L 0.3125 -4.296875 L 0.3125 -3.984375 C 1.015625 -3.984375 1.09375 -3.921875 1.09375 -3.421875 Z M 1.09375 -3.421875 "/>

<path id="leg" d="M0 0 H-16" stroke-width="2" stroke-opacity="0.85"/>
<path id="tick-yl" d="M-8 0 H0" />
<path id="tick-xu" d="M 0 0 V-8" />

<path id="x-axis" d="M -220 0 H220" />
<path id="y-axis" d="M 0 75 V-275" />

<path id="tick-xu2" d="M 0 0 V-4" />
<use id="tick-xl" xlink:href="#tick-xu" transform="rotate(180)" />
<g id="tick-4xu">
	<use xlink:href="#tick-xu2" transform="translate (10 0)" />
	<use xlink:href="#tick-xu2" transform="translate (20 0)" />
	<use xlink:href="#tick-xu2" transform="translate (30 0)" />
	<use xlink:href="#tick-xu2" transform="translate (40 0)" />
</g>

<style type="text/css">
.bar { fill:none; stroke-width:3; stroke:black; }
.C0 { stroke:#04d; }
.C1 { stroke:#e00; }
.axis  {stroke:black; fill:none; stroke-linecap:square;}
.graph {fill:none; stroke-width:0.02; stroke-linejoin:round;}
.tick  {fill:none; stroke-width:1; }
.grid-x  {stroke:black; fill:none; stroke-width:&grid-width;;}
.grid-x0 {stroke:black; fill:none;  stroke-width:&grid-width0;;}
.grid-y0   {stroke:black; fill:none; stroke-width:&grid-width0;;}
.grid-y    {stroke:#04d; fill:none; stroke-width:&grid-width;;}
.grid-y-pi {stroke:#d00; fill:none; stroke-width:&grid-width;;}
</style>

<clipPath id="canvas">
	<path d="M-220 75 H220 V-275 H-220 z" />
</clipPath>

</defs>

<rect fill="white" fill-opacity="0.8" x="-350" y="-400" width="100%" height="100%"/>

<g transform="scale(1.333333)">

<g id="grid-yl-pi" class="grid-y-pi">
	<use x="-188.5" xlink:href="#y-axis" />
	<use x="-157"   xlink:href="#y-axis" />
	<use x="-125.7" xlink:href="#y-axis" />
	<use x="-94.2" xlink:href="#y-axis" />
	<use x="-62.8" xlink:href="#y-axis" />
	<use x="-31.4" xlink:href="#y-axis" />
</g>
<use xlink:href="#grid-yl-pi" transform="scale(-1 1)" />
<use xlink:href="#y-axis" class="grid-y0"/>
<g  transform="translate(0 -275)">
<!-- upper x-Axis -->
<g class="tick" style="stroke:#d00">
	<use xlink:href="#tick-xl" x="-188.5" />
	<use xlink:href="#tick-xl" x="-157" />
	<use xlink:href="#tick-xl" x="-125.7" />
	<use xlink:href="#tick-xl" x="-94.2" />
	<use xlink:href="#tick-xl" x="-62.8" />
	<use xlink:href="#tick-xl" x="-31.4" />
	<use xlink:href="#tick-xl" x="0" />
	<use xlink:href="#tick-xl" x="31.4" />
	<use xlink:href="#tick-xl" x="62.8" />
	<use xlink:href="#tick-xl" x="94.2" />
	<use xlink:href="#tick-xl" x="125.7" />
	<use xlink:href="#tick-xl" x="157" />
	<use xlink:href="#tick-xl" x="188.5" />
</g>
<use xlink:href="#x-axis" class="axis" />

<g transform="translate (0 -2)">
	<!-- -6 pi -->
	<g transform="translate (-188 0) &tex-scale; translate (-104 -100)">
		<use xlink:href="#minus" x="90.6168" y="96.17"/>
		<use xlink:href="#d6" x="98.36563" y="96.17"/>
		<use xlink:href="#pi" x="103.34688" y="96.17"/>
	</g>
	<!-- -4 pi -->
	<g transform="translate (-125.7 0) &tex-scale; translate (-104 -100)">
		<use xlink:href="#minus" x="90.6168" y="96.17"/>
		<use xlink:href="#d4" x="98.36563" y="96.17"/>
		<use xlink:href="#pi" x="103.34688" y="96.17"/>
	</g>
	<!-- -2 pi -->
	<g transform="translate (-62.8 0) &tex-scale; translate (-104 -100)">
		<use xlink:href="#minus" x="90.6168" y="96.17"/>
		<use xlink:href="#d2" x="98.36563" y="96.17"/>
		<use xlink:href="#pi" x="103.34688" y="96.17"/>
	</g>
	<g transform="translate (0 0) &tex-scale; translate (-102.5 -100)">
	  <use xlink:href="#d0" x="100" y="97"/>
	</g>
	<!-- 2 pi -->
	<g transform="translate (62.8 0) &tex-scale; translate (-100 -100)">
		<use xlink:href="#d2" x="94.49099" y="97.000078"/>
		<use xlink:href="#pi" x="99.47224" y="97.000078"/>
	</g>
	<!-- 4 pi -->
	<g transform="translate (125.7 0) &tex-scale; translate (-100 -100)">
		<use xlink:href="#d4" x="94.49099" y="97.000078"/>
		<use xlink:href="#pi" x="99.47224" y="97.000078"/>
	</g>
	<!-- 6 pi -->
	<g transform="translate (188 0) &tex-scale; translate (-100 -100)">
		<use xlink:href="#d6" x="94.49099" y="97.000078"/>
		<use xlink:href="#pi" x="99.47224" y="97.000078"/>
	</g>
</g>
</g>

<g class="grid-x">
	<use xlink:href="#x-axis"/>
	<use y="-250" xlink:href="#x-axis" />
	<use y="-200" xlink:href="#x-axis" />
	<use y="-150" xlink:href="#x-axis" />
	<use y="-100" xlink:href="#x-axis" />
	<use y="-50"  xlink:href="#x-axis" />
	<use y="0"  xlink:href="#x-axis" class="grid-x0"/>
	<use y="50" xlink:href="#x-axis" />
</g>

<g id="grid-yl" class="grid-y">
	<use x="-200" xlink:href="#y-axis" />
	<use x="-150" xlink:href="#y-axis" />
	<use x="-100" xlink:href="#y-axis" />
	<use x="-50"  xlink:href="#y-axis" />
</g>

<use xlink:href="#grid-yl" transform="scale(-1 1)" />
<g  transform="translate(0 75)">
<!-- lower x-Axis -->
<g class="tick" id="ticks-x" style="stroke:#04d">
	<g id="ticks-xl">
		<use xlink:href="#tick-4xu" x="0" />
		<use xlink:href="#tick-4xu" x="50" />
		<use xlink:href="#tick-4xu" x="100" />
		<use xlink:href="#tick-4xu" x="150" />
		<use xlink:href="#tick-xu2" x="210" />
		<use xlink:href="#tick-xu" x="-200" />
		<use xlink:href="#tick-xu" x="-150" />
		<use xlink:href="#tick-xu" x="-100" />
		<use xlink:href="#tick-xu" x="-50" />
	</g>
	<use xlink:href="#ticks-xl" transform="scale(-1 1)" />
	<use xlink:href="#tick-xu" x="0" />
</g>
<use xlink:href="#x-axis" class="axis" />

<!-- x-Labels -->
<g transform="translate (0 24)">
	<g transform="translate (-200 0) &tex-scale; translate (-104 -100)">
	  <use xlink:href="#minus" x="91.1441" y="96.17"/>
	  <use xlink:href="#d2" x="98.89293" y="96.17"/>
	  <use xlink:href="#d0" x="103.874255" y="96.17"/>
	</g>
	<g transform="translate (-150 0) &tex-scale; translate (-104 -100)">
	  <use xlink:href="#minus" x="91.1441" y="96.17"/>
	  <use xlink:href="#d1" x="98.89293" y="96.17"/>
	  <use xlink:href="#d5" x="103.874255" y="96.17"/>
	</g>
	<g transform="translate (-100 0) &tex-scale; translate (-104 -100)">
	  <use xlink:href="#minus" x="91.1441" y="96.17"/>
	  <use xlink:href="#d1" x="98.89293" y="96.17"/>
	  <use xlink:href="#d0" x="103.874255" y="96.17"/>
	</g>
	<g transform="translate (-50 0) &tex-scale; translate (-104 -100)">
	  <use xlink:href="#minus" x="93.6348" y="96.17"/>
	  <use xlink:href="#d5" x="101.38363" y="96.17"/>
	</g>
	<g transform="translate (0 0) &tex-scale; translate (-102.5 -100)">
	  <use xlink:href="#d0" x="100" y="97"/>
	</g>
	<g transform="translate (50 0) &tex-scale; translate (-100 -100)">
	  <use xlink:href="#d5" x="97.5094" y="97"/>
	</g>
	<g transform="translate (100 0) &tex-scale; translate (-100 -100)">
	  <use xlink:href="#d1" x="95.0188" y="97"/>
	  <use xlink:href="#d0" x="100" y="97"/>
	</g>
	<g transform="translate (150 0) &tex-scale; translate (-100 -100)">
	  <use xlink:href="#d1" x="95.0188" y="97"/>
	  <use xlink:href="#d5" x="100" y="97"/>
	</g>
	<g transform="translate (200 0) &tex-scale; translate (-100 -100)">
	  <use xlink:href="#d2" x="95.0188" y="97"/>
	  <use xlink:href="#d0" x="100" y="97"/>
	</g>
</g>
</g>

<g clip-path="url(#canvas)">
<g stroke-opacity="0.3" transform="scale(100) scale(1 -1)">
	<path id="f0" class="graph C0" d="M -2.2,0 C -2.189155,-0.012324 -2.169716,-0.036673 -2.15,-0.037013 C -2.129807,-0.03736 -2.110598,-0.012616 -2.1,0 C -2.089552,0.012439 -2.06981,0.038443 -2.05,0.038818 C -2.029668,0.039203 -2.010169,0.012711 -2,0 C -1.989976,-0.01253 -1.969907,-0.040392 -1.95,-0.040809 C -1.929521,-0.041238 -1.909709,-0.012774 -1.9,0 C -1.890427,0.012596 -1.870007,0.04255 -1.85,0.043015 C -1.829366,0.043495 -1.809215,0.012798 -1.8,0 C -1.790903,-0.012634 -1.770106,-0.04495 -1.75,-0.045473 C -1.729202,-0.046013 -1.70869,-0.012779 -1.7,0 C -1.691407,0.012637 -1.670206,0.047638 -1.65,0.048229 C -1.629031,0.048842 -1.60813,0.012704 -1.6,0 C -1.591936,-0.0126 -1.570304,-0.050668 -1.55,-0.05134 C -1.52885,-0.052041 -1.507537,-0.012562 -1.5,0 C -1.492488,0.012519 -1.470399,0.054109 -1.45,0.054881 C -1.428662,0.055689 -1.406913,0.012344 -1.4,0 C -1.393059,-0.012395 -1.370489,-0.058052 -1.35,-0.058946 C -1.328465,-0.059887 -1.306255,-0.012029 -1.3,0 C -1.293644,0.012224 -1.270571,0.062614 -1.25,0.063662 C -1.228258,0.064769 -1.20557,0.011603 -1.2,0 C -1.194239,-0.012002 -1.170642,-0.067956 -1.15,-0.069198 C -1.128043,-0.070519 -1.104859,-0.011044 -1.1,0 C -1.09483,0.011751 -1.070697,0.074294 -1.05,0.075788 C -1.027816,0.077389 -1.004131,0.010327 -1,0 C -0.99541,-0.011474 -0.970733,-0.081938 -0.95,-0.083766 C -0.927576,-0.085743 -0.903386,-0.009406 -0.9,0 C -0.89596,0.011223 -0.870741,0.091336 -0.85,0.093621 C -0.827319,0.096119 -0.802635,0.008235 -0.8,0 C -0.796464,-0.01105 -0.770713,-0.103173 -0.75,-0.106103 C -0.727035,-0.109352 -0.701879,-0.00671 -0.7,0 C -0.696901,0.011069 -0.670637,0.11854 -0.65,0.122427 C -0.626713,0.126813 -0.601128,0.004699 -0.6,0 C -0.597229,-0.011545 -0.570491,-0.139296 -0.55,-0.144686 C -0.526326,-0.150914 -0.500373,-0.001863 -0.5,0 C -0.497405,0.012977 -0.470242,0.168884 -0.45,0.176839 C -0.425825,0.186339 -0.399601,-0.002496 -0.4,0 C -0.397328,-0.016698 -0.369827,-0.214484 -0.35,-0.227364 C -0.325101,-0.243539 -0.298758,0.010353 -0.3,0 C -0.29677,0.026917 -0.269135,0.293946 -0.25,0.31831 C -0.223876,0.351572 -0.197706,-0.028672 -0.2,0 C -0.194727,-0.065913 -0.16827,-0.4659 -0.15,-0.530516 C -0.121314,-0.631971 -0.096077,0.098075 -0.1,0 C -0.078991,0.525232 -0.066506,1.066152 -0.05,1.591549 C -0.04995,1.593135 -0.024572,2.5 0,2.5 C 0.024572,2.5 0.04995,1.593135 0.05,1.591549 C 0.066506,1.066152 0.078991,0.525232 0.1,0 C 0.096077,0.098075 0.121314,-0.631971 0.15,-0.530516 C 0.16827,-0.4659 0.194727,-0.065913 0.2,0 C 0.197706,-0.028672 0.223876,0.351572 0.25,0.31831 C 0.269135,0.293946 0.29677,0.026917 0.3,0 C 0.298758,0.010353 0.325101,-0.243539 0.35,-0.227364 C 0.369827,-0.214484 0.397328,-0.016698 0.4,0 C 0.399601,-0.002496 0.425825,0.186339 0.45,0.176839 C 0.470242,0.168884 0.497405,0.012977 0.5,0 C 0.500373,-0.001863 0.526326,-0.150914 0.55,-0.144686 C 0.570491,-0.139296 0.597229,-0.011545 0.6,0 C 0.601128,0.004699 0.626713,0.126813 0.65,0.122427 C 0.670637,0.11854 0.696901,0.011069 0.7,0 C 0.701879,-0.00671 0.727035,-0.109352 0.75,-0.106103 C 0.770713,-0.103173 0.796464,-0.01105 0.8,0 C 0.802635,0.008235 0.827319,0.096119 0.85,0.093621 C 0.870741,0.091336 0.89596,0.011223 0.9,0 C 0.903386,-0.009406 0.927576,-0.085743 0.95,-0.083766 C 0.970733,-0.081938 0.99541,-0.011474 1,0 C 1.004131,0.010327 1.027816,0.077389 1.05,0.075788 C 1.070697,0.074294 1.09483,0.011751 1.1,0 C 1.104859,-0.011044 1.128043,-0.070519 1.15,-0.069198 C 1.170642,-0.067956 1.194239,-0.012002 1.2,0 C 1.20557,0.011603 1.228258,0.064769 1.25,0.063662 C 1.270571,0.062614 1.293644,0.012224 1.3,0 C 1.306255,-0.012029 1.328465,-0.059887 1.35,-0.058946 C 1.370489,-0.058052 1.393059,-0.012395 1.4,0 C 1.406913,0.012344 1.428662,0.055689 1.45,0.054881 C 1.470399,0.054109 1.492488,0.012519 1.5,0 C 1.507537,-0.012562 1.52885,-0.052041 1.55,-0.05134 C 1.570304,-0.050668 1.591936,-0.0126 1.6,0 C 1.60813,0.012704 1.629031,0.048842 1.65,0.048229 C 1.670206,0.047638 1.691407,0.012637 1.7,0 C 1.70869,-0.012779 1.729202,-0.046013 1.75,-0.045473 C 1.770106,-0.04495 1.790903,-0.012634 1.8,0 C 1.809215,0.012798 1.829366,0.043495 1.85,0.043015 C 1.870007,0.04255 1.890427,0.012596 1.9,0 C 1.909709,-0.012774 1.929521,-0.041238 1.95,-0.040809 C 1.969907,-0.040392 1.989976,-0.01253 2,0 C 2.010169,0.012711 2.029668,0.039203 2.05,0.038818 C 2.06981,0.038443 2.089552,0.012439 2.1,0 C 2.110598,-0.012616 2.129807,-0.03736 2.15,-0.037013 C 2.169716,-0.036673 2.189155,-0.012324 2.2,0" />
	<path id="f1" class="graph C1" d="M -2.199115,0 C -2.165486,0.03823 -2.102622,0.118795 -2.042035,0.122427 C -1.976252,0.126371 -1.915799,0.040907 -1.884956,0 C -1.855365,-0.039246 -1.788892,-0.139577 -1.727876,-0.144686 C -1.659859,-0.150382 -1.596256,-0.04052 -1.570796,0 C -1.545785,0.039807 -1.4749,0.169186 -1.413717,0.176839 C -1.342849,0.185704 -1.275445,0.037418 -1.256637,0 C -1.236283,-0.040494 -1.160299,-0.214804 -1.099557,-0.227364 C -1.024897,-0.242802 -0.953301,-0.028708 -0.942478,0 C -0.925618,0.044723 -0.844369,0.29441 -0.785398,0.31831 C -0.705052,0.350873 -0.629924,0.006387 -0.628319,0 C -0.610354,-0.07148 -0.525209,-0.469758 -0.471239,-0.530516 C -0.378851,-0.634526 -0.304905,0.073646 -0.314159,0 C -0.251853,0.495818 -0.206145,1.094409 -0.15708,1.591549 C -0.155771,1.604811 -0.076876,2.5 0,2.5 C 0.076876,2.5 0.155771,1.604811 0.15708,1.591549 C 0.206145,1.094409 0.251853,0.495818 0.314159,0 C 0.304905,0.073646 0.378851,-0.634526 0.471239,-0.530516 C 0.525209,-0.469758 0.610354,-0.07148 0.628319,0 C 0.629924,0.006387 0.705052,0.350873 0.785398,0.31831 C 0.844369,0.29441 0.925618,0.044723 0.942478,0 C 0.953301,-0.028708 1.024897,-0.242802 1.099557,-0.227364 C 1.160299,-0.214804 1.236283,-0.040494 1.256637,0 C 1.275445,0.037418 1.342849,0.185704 1.413717,0.176839 C 1.4749,0.169186 1.545785,0.039807 1.570796,0 C 1.596256,-0.04052 1.659859,-0.150382 1.727876,-0.144686 C 1.788892,-0.139577 1.855365,-0.039246 1.884956,0 C 1.915799,0.040907 1.976252,0.126371 2.042035,0.122427 C 2.102622,0.118795 2.165486,0.03823 2.199115,0" />
	<use xlink:href="#f0"/>
	<use xlink:href="#f1"/>
	<use xlink:href="#f0"/>
	<use xlink:href="#f1"/>
	<use xlink:href="#f0"/>
	<use xlink:href="#f1"/>
</g></g>

<g transform="translate(220 0)">
<!-- right y-Axis -->
<use xlink:href="#y-axis" class="axis" />
<!-- Ticks -->
<g id="y-ticks" class="tick" style="stroke:black">
	<use xlink:href="#tick-yl" y="50" />
	<use xlink:href="#tick-yl" y="-50" />
	<use xlink:href="#tick-yl" y="-100" />
	<use xlink:href="#tick-yl" y="-150" />
	<use xlink:href="#tick-yl" y="-200" />
	<use xlink:href="#tick-yl" y="-250" />
</g></g>

<g transform="translate(-220 0)">
<!-- left y-Axis -->
<use xlink:href="#y-axis" class="axis" />
<use xlink:href="#y-ticks" transform="scale(-1 1)" />
<g id="y-labels" transform="translate (0 0)">
	<!-- 1.0 -->
	<g transform="translate (0 -250) &tex-scale; translate (-100 -100)">
		<use xlink:href="#d1" x="84.2699" y="103.2102"/>
		<use xlink:href="#dot" x="89.25115" y="103.2102"/>
		<use xlink:href="#d0" x="92.01873" y="103.2102"/>
	</g>
	<!-- 0.8 -->
	<g transform="translate (0 -200) &tex-scale; translate (-100 -100)">
		<use xlink:href="#d0" x="84.2699" y="103.2102"/>
		<use xlink:href="#dot" x="89.25115" y="103.2102"/>
		<use xlink:href="#d8" x="92.01873" y="103.2102"/>
	</g>
	<!-- 0.6 -->
	<g transform="translate (0 -150) &tex-scale; translate (-100 -100)">
		<use xlink:href="#d0" x="84.2699" y="103.2102"/>
		<use xlink:href="#dot" x="89.25115" y="103.2102"/>
		<use xlink:href="#d6" x="92.01873" y="103.2102"/>
	</g>
	<!-- 0.4 -->
	<g transform="translate (0 -100) &tex-scale; translate (-100 -100)">
		<use xlink:href="#d0" x="84.2699" y="103.2102"/>
		<use xlink:href="#dot" x="89.25115" y="103.2102"/>
		<use xlink:href="#d4" x="92.01873" y="103.2102"/>
	</g>
	<!-- 0.2 -->
	<g transform="translate (0 -50) &tex-scale; translate (-100 -100)">
		<use xlink:href="#d0" x="84.2699" y="103.2102"/>
		<use xlink:href="#dot" x="89.25115" y="103.2102"/>
		<use xlink:href="#d2" x="92.01873" y="103.2102"/>
	</g>
	<!-- 0 -->
	<g transform="translate (0 0) &tex-scale; translate (-100 -100)">
		<use xlink:href="#d0" x="89" y="103.2102"/>
	</g>
	<!-- -0.2 -->
	<g transform="translate (0 50) &tex-scale; translate (-100 -100)">
		<use xlink:href="#minus" x="76.52106" y="102.7949"/>
		<use xlink:href="#d0" x="84.26989" y="102.7949"/>
		<use xlink:href="#dot" x="89.25114" y="102.7949"/>
		<use xlink:href="#d2" x="92.01872" y="102.7949"/>
	</g>
</g>
</g>

<!-- Legend -->
<g fill="black" transform="translate(100 -200) scale(1.4)">
	<rect x="-30" y="-28" width="95" height="85" style="fill:white; stroke:black; stroke-width:0.5; opacity:0.75" />

	<g transform="translate(0 37) scale(1)">
		<use xlink:href="#leg" class="C0" y="-1.5"/>
		<g transform="translate (0 -3) scale(1.3) translate (-100 -100)">
		  <use xlink:href="#s" x="104.195" y="96.949"/>
		  <use xlink:href="#i" x="108.120284" y="96.949"/>
		  <use xlink:href="#n" x="110.879938" y="96.949"/>
		  <use xlink:href="#lparen" x="116.409209" y="96.949"/>
		  <use xlink:href="#pi" x="120.3016" y="96.949"/>
		  <use xlink:href="#it-x" x="126.337928" y="96.949"/>
		  <use xlink:href="#rparen" x="132.0317" y="96.949"/>
		  <path class="bar" d="M 1041.953125 988.007812 L 1359.0625 988.007812 " transform="matrix(0.1,0,0,-0.1,0,200)"/>
		  <use xlink:href="#pi" x="114.186" y="110.523"/>
		  <use xlink:href="#it-x" x="120.222328" y="110.523"/>
		</g>
	</g>

	<g transform="translate(0 -1) scale(1)">
		<use xlink:href="#leg" class="C1" y="-1.5"/>
		<g transform="translate (0 -3) scale(1.3) translate (-100 -100)">
		  <use xlink:href="#s" x="104.195" y="96.949"/>
		  <use xlink:href="#i" x="108.120284" y="96.949"/>
		  <use xlink:href="#n" x="110.879938" y="96.949"/>
		  <use xlink:href="#lparen" x="116.409209" y="96.949"/>
		  <use xlink:href="#it-x" x="120.3016" y="96.949"/>
		  <use xlink:href="#rparen" x="125.99535" y="96.949"/>
		  <path class="bar" d="M 1041.953125 988.007812 L 1298.710938 988.007812 " transform="matrix(0.1,0,0,-0.1,0,200)"/>
		  <use xlink:href="#it-x" x="114.186" y="110.523"/>
		</g>
	</g>
</g>

</g>
</svg>
